<svg width="26" height="26" viewBox="0 0 26 26" fill="none" xmlns="http://www.w3.org/2000/svg">
<rect width="26" height="26" fill="white"/>
<path d="M20 4H6C4.89543 4 4 4.89543 4 6V20C4 21.1046 4.89543 22 6 22H20C21.1046 22 22 21.1046 22 20V6C22 4.89543 21.1046 4 20 4Z" stroke="black" stroke-width="2" stroke-linecap="round" stroke-linejoin="round"/>
<path d="M10 12C11.1046 12 12 11.1046 12 10C12 8.89543 11.1046 8 10 8C8.89543 8 8 8.89543 8 10C8 11.1046 8.89543 12 10 12Z" stroke="black" stroke-width="2" stroke-linecap="round" stroke-linejoin="round"/>
<path d="M22 15.9997L18.914 12.9137C18.5389 12.5388 18.0303 12.3281 17.5 12.3281C16.9697 12.3281 16.4611 12.5388 16.086 12.9137L7 21.9997" stroke="black" stroke-width="2" stroke-linecap="round" stroke-linejoin="round"/>
</svg>
