<svg xmlns="http://www.w3.org/2000/svg" viewBox="0 0 24 24" fill="currentColor" width="24px" height="24px"><path d="M0 0h24v24H0z" fill="none"/><path d="M9.4 10.5l-2.53 3.37c-.29.39-.13.95.34 1.1.14.05.28.07.42.07.28 0 .54-.15.69-.4l2.67-3.56-2.59-3.45z"/><path d="M12 2C6.48 2 2 6.48 2 12s4.48 10 10 10 10-4.48 10-10S17.52 2 12 2zm0 18c-4.41 0-8-3.59-8-8s3.59-8 8-8 8 3.59 8 8-3.59 8-8 8zm-1-11.5c-1.1 0-2 .9-2 2s.9 2 2 2 2-.9 2-2-.9-2-2-2z"/><path d="M14.47 13.87l-2.67 3.56c-.15.25-.41.4-.69.4-.14 0-.28-.02-.42-.07-.47-.15-.63-.71-.34-1.1l2.53-3.37 2.59 3.45z"/></svg>
